<?xml version="1.0"?>
<svg xmlns="http://www.w3.org/2000/svg" xmlns:xlink="http://www.w3.org/1999/xlink" xmlns:svgjs="http://svgjs.com/svgjs" version="1.1" width="512" height="512" x="0" y="0" viewBox="0 0 511.078 511.078" style="enable-background:new 0 0 512 512" xml:space="preserve" class=""><g><g xmlns="http://www.w3.org/2000/svg"><path d="m319.947 288.655c-4.143 0-7.5 3.358-7.5 7.5v113.352c0 7.942-6.462 14.404-14.404 14.404s-14.404-6.462-14.404-14.404v-305.935c0-7.942 6.462-14.404 14.404-14.404s14.404 6.462 14.404 14.404v111.352c0 4.142 3.357 7.5 7.5 7.5s7.5-3.358 7.5-7.5v-111.352c0-16.213-13.19-29.404-29.404-29.404-15.017 0-27.432 11.318-29.184 25.87l-83.02 74.881-152.5 21.014c-18.947 2.61-33.235 19.002-33.235 38.128v42.956c0 19.126 14.288 35.518 33.235 38.128l27.086 3.732v35.199c0 4.142 3.357 7.5 7.5 7.5s7.5-3.358 7.5-7.5v-33.132l71.987 9.919-23.299 37.841c-.728 1.182-1.113 2.543-1.113 3.932v95.236c0 5.516-4.487 10.003-10.003 10.003h-27.568c-5.517 0-10.004-4.487-10.004-10.003v-81.832c0-4.142-3.357-7.5-7.5-7.5s-7.5 3.358-7.5 7.5v81.834c0 13.787 11.217 25.003 25.004 25.003h27.567c13.787 0 25.003-11.216 25.003-25.003v-93.112l25.65-41.66 22.189 3.057 82.834 74.714c.717 15.581 13.614 28.037 29.37 28.037 16.214 0 29.404-13.191 29.404-29.404v-113.351c.001-4.142-3.357-7.5-7.499-7.5zm-257.973 15.295v-96.822l22.314-3.075v102.971zm-46.87-26.933v-42.956c0-11.672 8.72-21.676 20.282-23.269l11.588-1.597v92.688l-11.588-1.597c-11.562-1.593-20.282-11.597-20.282-23.269zm175.067 44.598-29.19-4.022c-.016-.002-.031-.004-.047-.007l-61.645-8.494v-107.105l90.883-12.523c1.49-.205 2.884-.854 4-1.86l40.235-36.29c.02 8.623.045 20.091.072 33.312.009 4.137 3.364 7.485 7.5 7.485h.016c4.142-.008 7.493-3.373 7.484-7.515-.045-22.408-.087-39.796-.104-46.782l19.264-17.376v270.205l-19.159-17.281c.003-.235.007-.471.01-.712.033-2.62.061-6.432.082-11.222.04-8.928.063-21.911.069-38.588.01-26.576-.024-62.333-.102-106.278-.007-4.138-3.363-7.487-7.5-7.487-.004 0-.009 0-.013 0-4.143.007-7.494 3.371-7.487 7.513.146 83.769.118 124.249.041 143.336l-40.408-36.446c-1.117-1.01-2.51-1.658-4.001-1.863z" fill="#ffffff" data-original="#000000" style="" class=""/><path d="m471.275 171.465h-86.257c-21.89 0-39.698 17.809-39.698 39.699v14.664l-29.351 17.848c-4.177 2.541-6.67 6.975-6.67 11.863s2.493 9.323 6.67 11.863l29.351 17.848v18.214c0 21.89 17.809 39.699 39.698 39.699h25.622c4.143 0 7.5-3.358 7.5-7.5s-3.357-7.5-7.5-7.5h-25.622c-13.619 0-24.698-11.08-24.698-24.699v-22.431c0-2.619-1.366-5.048-3.604-6.408l-31.386-19.086 31.386-19.086c2.237-1.361 3.604-3.79 3.604-6.408v-18.881c0-13.619 11.079-24.699 24.698-24.699h86.257c13.619 0 24.699 11.08 24.699 24.699v92.301c0 13.619-11.08 24.699-24.699 24.699h-28.672c-4.143 0-7.5 3.358-7.5 7.5s3.357 7.5 7.5 7.5h28.672c21.891 0 39.699-17.809 39.699-39.699v-92.301c0-21.891-17.808-39.699-39.699-39.699z" fill="#ffffff" data-original="#000000" style="" class=""/><path d="m356.462 47.416v61.405c0 21.89 17.809 39.699 39.698 39.699h63.973c21.89 0 39.698-17.809 39.698-39.699v-69.122c.001-21.89-17.808-39.699-39.698-39.699h-118.681c-5.018 0-9.558 2.971-11.567 7.569s-1.104 9.948 2.305 13.631zm103.671-32.416c13.619 0 24.698 11.08 24.698 24.699v69.122c0 13.619-11.079 24.699-24.698 24.699h-63.973c-13.618 0-24.698-11.08-24.698-24.699v-64.344c0-1.889-.713-3.709-1.997-5.096l-22.574-24.381z" fill="#ffffff" data-original="#000000" style="" class=""/><path d="m460.133 362.559h-63.973c-21.89 0-39.698 17.809-39.698 39.699v61.405l-24.274 26.217c-3.408 3.682-4.312 9.032-2.304 13.63 2.01 4.598 6.55 7.569 11.567 7.569h118.682c21.89 0 39.698-17.809 39.698-39.699v-69.122c.001-21.891-17.808-39.699-39.698-39.699zm24.699 108.82c0 13.619-11.079 24.699-24.698 24.699h-113.243l22.574-24.381c1.284-1.387 1.997-3.207 1.997-5.096v-64.344c0-13.619 11.08-24.699 24.698-24.699h63.973c13.619 0 24.698 11.08 24.698 24.699v69.122z" fill="#ffffff" data-original="#000000" style="" class=""/></g></g></svg>
